<svg xmlns="http://www.w3.org/2000/svg" xmlns:svg="http://www.w3.org/2000/svg" xmlns:xlink="http://www.w3.org/1999/xlink" id="Layer_1" x="0" y="0" version="1.1" viewBox="0 0 647.2 272.7" xml:space="preserve" style="enable-background:new 0 0 647.2 272.7"><style type="text/css">.st0{enable-background:new}.st1{fill:#3980f5}.st2{fill:#30c730}.st3{fill:#f01616}</style><g><g><g id="g4285"><g class="st0"><path d="M108.9,46.3c0.2-0.2,0.4-0.5,0.6-0.7c0.2-0.2,0.4-0.5,0.6-0.7c0.2-0.2,0.4-0.5,0.6-0.7c0.2-0.2,0.3-0.4,0.5-0.6h2.5 c-0.5,0.6-1,1.1-1.5,1.6c-0.5,0.5-1,1.1-1.6,1.6c0.3,0.3,0.6,0.6,0.9,0.9c0.3,0.4,0.6,0.7,0.9,1.1c0.3,0.4,0.5,0.8,0.8,1.1 c0.2,0.4,0.4,0.7,0.6,1h-2.4c-0.2-0.2-0.3-0.5-0.5-0.8c-0.2-0.3-0.4-0.6-0.6-0.9c-0.2-0.3-0.4-0.6-0.7-0.9 c-0.2-0.3-0.5-0.5-0.7-0.7v3.3h-2.1V40.5l2.1-0.3V46.3z" transform="matrix(11.512843,0,0,11.51284,-1062.3103,-394.41039)"/><path d="M121.5,47.4c0,0.6-0.1,1.1-0.3,1.6c-0.2,0.5-0.4,0.9-0.7,1.2c-0.3,0.3-0.7,0.6-1.2,0.8c-0.4,0.2-0.9,0.3-1.5,0.3 c-0.5,0-1-0.1-1.5-0.3c-0.4-0.2-0.8-0.5-1.2-0.8c-0.3-0.3-0.6-0.8-0.7-1.2c-0.2-0.5-0.3-1-0.3-1.6c0-0.6,0.1-1.1,0.3-1.6 c0.2-0.5,0.4-0.9,0.8-1.2c0.3-0.3,0.7-0.6,1.2-0.8c0.4-0.2,0.9-0.3,1.5-0.3c0.5,0,1,0.1,1.5,0.3c0.4,0.2,0.8,0.5,1.2,0.8 c0.3,0.3,0.6,0.7,0.7,1.2C121.4,46.2,121.5,46.8,121.5,47.4z M119.3,47.4c0-0.7-0.1-1.2-0.4-1.5c-0.3-0.4-0.6-0.6-1.1-0.6 c-0.5,0-0.9,0.2-1.1,0.6c-0.3,0.4-0.4,0.9-0.4,1.5c0,0.7,0.1,1.2,0.4,1.5c0.3,0.4,0.6,0.6,1.1,0.6c0.5,0,0.9-0.2,1.1-0.6 C119.2,48.5,119.3,48,119.3,47.4z" transform="matrix(11.512843,0,0,11.51284,-1062.3103,-394.41039)"/><path d="M127.6,45.5c-0.2,0-0.4-0.1-0.7-0.1c-0.3-0.1-0.5-0.1-0.8-0.1c-0.1,0-0.3,0-0.5,0c-0.2,0-0.3,0-0.4,0.1v5.7h-2.1v-7 c0.4-0.1,0.8-0.3,1.3-0.4c0.5-0.1,1.1-0.2,1.7-0.2c0.1,0,0.2,0,0.4,0c0.2,0,0.3,0,0.5,0.1c0.2,0,0.3,0.1,0.5,0.1 c0.2,0,0.3,0.1,0.4,0.1L127.6,45.5z" transform="matrix(11.512843,0,0,11.51284,-1062.3103,-394.41039)"/><path d="M129,43.9c0.4-0.1,0.8-0.2,1.4-0.3c0.6-0.1,1.2-0.1,1.8-0.1c0.6,0,1.2,0.1,1.6,0.2c0.4,0.2,0.8,0.4,1,0.7 c0.2,0.3,0.4,0.7,0.5,1.1c0.1,0.4,0.2,0.9,0.2,1.4v4.2h-2.1v-3.9c0-0.7-0.1-1.2-0.3-1.4c-0.2-0.3-0.5-0.4-1-0.4 c-0.2,0-0.3,0-0.5,0c-0.2,0-0.3,0-0.5,0v5.7H129V43.9z" transform="matrix(11.512843,0,0,11.51284,-1062.3103,-394.41039)"/><path d="M139.7,41.5c0,0.4-0.1,0.7-0.4,0.9c-0.2,0.2-0.5,0.3-0.9,0.3c-0.3,0-0.6-0.1-0.9-0.3c-0.2-0.2-0.4-0.5-0.4-0.9 c0-0.4,0.1-0.7,0.4-0.9c0.2-0.2,0.5-0.3,0.9-0.3c0.3,0,0.6,0.1,0.9,0.3C139.5,40.8,139.7,41.1,139.7,41.5z M139.5,51.1h-2.1 v-7.4h2.1V51.1z" transform="matrix(11.512843,0,0,11.51284,-1062.3103,-394.41039)"/><path d="M144.1,43.5c0.6,0,1.1,0.1,1.6,0.2c0.4,0.1,0.7,0.3,1,0.6c0.2,0.3,0.4,0.6,0.5,1c0.1,0.4,0.2,0.8,0.2,1.3v4.4 c-0.3,0.1-0.7,0.1-1.3,0.2c-0.5,0.1-1.2,0.1-2,0.1c-0.5,0-0.9,0-1.3-0.1c-0.4-0.1-0.7-0.2-1-0.4c-0.3-0.2-0.5-0.4-0.7-0.8 c-0.2-0.3-0.2-0.7-0.2-1.1c0-0.4,0.1-0.8,0.3-1.1c0.2-0.3,0.4-0.5,0.7-0.7c0.3-0.2,0.6-0.3,1-0.4c0.4-0.1,0.8-0.1,1.2-0.1 c0.3,0,0.5,0,0.7,0c0.2,0,0.4,0.1,0.5,0.1v-0.2c0-0.4-0.1-0.6-0.3-0.9c-0.2-0.2-0.6-0.3-1.1-0.3c-0.4,0-0.7,0-1.1,0.1 c-0.3,0.1-0.7,0.1-0.9,0.2l-0.3-1.7c0.1,0,0.3-0.1,0.5-0.1c0.2,0,0.4-0.1,0.6-0.1c0.2,0,0.4-0.1,0.7-0.1 C143.6,43.5,143.9,43.5,144.1,43.5z M144.3,49.6c0.2,0,0.4,0,0.6,0c0.2,0,0.3,0,0.5,0V48c-0.1,0-0.2,0-0.4-0.1 c-0.2,0-0.3,0-0.5,0c-0.2,0-0.4,0-0.6,0c-0.2,0-0.3,0.1-0.5,0.1c-0.1,0.1-0.2,0.2-0.3,0.3c-0.1,0.1-0.1,0.3-0.1,0.4 c0,0.3,0.1,0.6,0.3,0.7C143.6,49.6,143.9,49.6,144.3,49.6z" transform="matrix(11.512843,0,0,11.51284,-1062.3103,-394.41039)"/></g></g><g><path id="Path_228_1_" d="M126.5,104.5L68,71.1L9.5,104.5v66.7L68,204.5l58.5-33.3V104.5z"/><g><path id="Path_229_1_" d="M73.2,183v-43.5l37.7-21.7v43.5L73.2,183z" class="st1"/><path id="Path_230_1_" d="M25.1,117.9v43.5L62.8,183v-43.5L25.1,117.9z" class="st2"/><path id="Path_231_1_" d="M29.4,109.8l38.3,21.6l38.3-21.6L67.6,88.2L29.4,109.8z" class="st3"/></g></g></g></g></svg>